<svg width="1024" height="1024" xmlns="http://www.w3.org/2000/svg" style="vector-effect: non-scaling-stroke;" version="1.1" xml:space="preserve">
 <g>
  <title>Logo</title>
  <ellipse stroke-width="0" ry="500" rx="500" cy="512" cx="512" stroke="#000" fill="#2fd080"/>
  <ellipse stroke-width="0" ry="475" rx="475" cy="512" cx="512" stroke="#000" fill="#ffffff"/>
  <ellipse stroke-width="0" ry="450" rx="450" cy="512" cx="512" stroke="#000" fill="#2fd080"/>
  <g>
     <path fill="#ffffff" d="m535.00053,620.00195c0,22.056 17.944,40 40,40l47,0c22.056,0 40,-17.944 40,-40l0,-47c0,-22.056 -17.944,-40 -40,-40l-47,0c-22.056,0 -40,17.944 -40,40l0,47zm40,-47l47,0l0.025,46.999c0,0 -0.007,0.001 -0.025,0.001l-47,0l0,-47z"/>
     <circle fill="#ffffff" cx="642.00053" cy="466.00195" r="20"/>
     <circle fill="#ffffff" cx="555.00053" cy="466.00195" r="19.99997"/>
     <path fill="#ffffff" d="m748.00053,608.00195c11.046,0 20,-8.954 20,-20l0,-212c0,-44.112 -35.888,-80 -80,-80l-26,0l0,-20c0,-11.046 -8.954,-20 -20,-20c-11.046,0 -20,8.954 -20,20l0,20l-91,0l0,-20c0,-11.046 -8.954,-20 -20,-20s-20,8.954 -20,20l0,20l-90,0l0,-20c0,-11.046 -8.954,-20 -20,-20s-20,8.954 -20,20l0,20l-25,0c-44.112,0 -80,35.888 -80,80l0,312c0,44.112 35.888,80 80,80l352,0c44.112,0 80,-35.888 80,-80c0,-11.046 -8.954,-20 -20,-20c-11.046,0 -20,8.954 -20,20c0,22.056 -17.944,40 -40,40l-352,0c-22.056,0 -40,-17.944 -40,-40l0,-312c0,-22.056 17.944,-40 40,-40l25,0l0,20c0,11.046 8.954,20 20,20s20,-8.954 20,-20l0,-20l90,0l0,20c0,11.046 8.954,20 20,20c11.046,0 20,-8.954 20,-20l0,-20l91,0l0,20c0,11.046 8.954,20 20,20c11.046,0 20,-8.954 20,-20l0,-20l26,0c22.056,0 40,17.944 40,40l0,212c0,11.046 8.954,20 20,20z"/>
     <circle fill="#ffffff" cx="381.00053" cy="640.00195" r="20"/>
     <circle fill="#ffffff" cx="381.00053" cy="466.00195" r="20"/>
     <circle fill="#ffffff" cx="381.00053" cy="553.00195" r="20"/>
     <circle fill="#ffffff" cx="468.00053" cy="553.00195" r="20"/>
     <circle fill="#ffffff" cx="468.00053" cy="466.00195" r="20"/>
     <circle fill="#ffffff" cx="468.00053" cy="640.00195" r="20"/>
  </g>
 </g>

</svg>